<svg xmlns="http://www.w3.org/2000/svg" width="36" height="36" viewBox="0 0 36 36">
  <rect width="36" height="36" rx="6" fill="#333333"/>
  <path d="M18 6C11.373 6 6 11.373 6 18c0 5.303 3.438 9.8 8.205 11.387.6.11.82-.26.82-.577 0-.285-.01-1.04-.015-2.04-3.338.724-4.042-1.61-4.042-1.61-.546-1.387-1.333-1.756-1.333-1.756-1.09-.745.083-.73.083-.73 1.205.085 1.84 1.237 1.84 1.237 1.07 1.834 2.807 1.304 3.492.997.108-.775.418-1.305.762-1.605-2.665-.3-5.466-1.332-5.466-5.93 0-1.31.468-2.38 1.235-3.22-.124-.303-.535-1.524.117-3.176 0 0 1.008-.322 3.3 1.23A11.5 11.5 0 0118 12.844c1.02.005 2.047.138 3.006.404 2.29-1.552 3.297-1.23 3.297-1.23.653 1.652.242 2.873.118 3.176.77.84 1.233 1.91 1.233 3.22 0 4.61-2.805 5.625-5.475 5.92.43.372.823 1.102.823 2.222 0 1.604-.015 2.896-.015 3.29 0 .32.216.694.825.576C26.565 27.797 30 23.3 30 18c0-6.627-5.373-12-12-12z" fill="#fff"/>
</svg>
